<?xml version="1.0" encoding="UTF-8"?>
<svg id="Layer_1" xmlns="http://www.w3.org/2000/svg" version="1.1" viewBox="0 0 2055 1101">
  <!-- Generator: Adobe Illustrator 29.3.1, SVG Export Plug-In . SVG Version: 2.1.0 Build 151)  -->
  <defs>
    <style>
      .st0 {
        fill: #c1ae92;
      }

      .st0, .st1, .st2, .st3, .st4, .st5, .st6, .st7, .st8, .st9, .st10, .st11, .st12, .st13, .st14, .st15, .st16, .st17, .st18, .st19, .st20, .st21, .st22, .st23, .st24, .st25, .st26 {
        font-family: ArialMT, Arial;
        isolation: isolate;
      }

      .st0, .st2, .st7, .st8, .st10, .st12, .st14, .st15, .st16, .st17, .st18, .st19, .st21, .st24, .st25, .st26 {
        font-size: 13.9px;
      }

      .st1 {
        fill: #826944;
      }

      .st1, .st20 {
        font-size: 18.5px;
      }

      .st2 {
        fill: #88704a;
      }

      .st3 {
        fill: #a48a65;
      }

      .st3, .st9, .st11 {
        font-size: 22.4px;
      }

      .st4 {
        fill: #87714c;
        font-size: 10.9px;
      }

      .st5 {
        fill: #c2a982;
        font-size: 37.4px;
      }

      .st6 {
        fill: #aa8a58;
        font-size: 28.2px;
      }

      .st7 {
        fill: #b8975e;
      }

      .st8 {
        fill: #b7965d;
      }

      .st9 {
        fill: #ccbfac;
      }

      .st10 {
        fill: #7a6542;
      }

      .st11 {
        fill: #8d744c;
      }

      .st12 {
        fill: #d0bea1;
      }

      .st13 {
        fill: #bda376;
        font-size: 31.3px;
      }

      .st14 {
        fill: #b49461;
      }

      .st15 {
        fill: #b7965e;
      }

      .st27 {
        fill: #fff;
      }

      .st16 {
        fill: #90764e;
      }

      .st17 {
        fill: #b9975e;
      }

      .st18 {
        fill: #957b51;
      }

      .st19 {
        fill: #b8965d;
      }

      .st20 {
        fill: #b89a6b;
      }

      .st21 {
        fill: #b6955d;
      }

      .st22 {
        fill: #a28557;
        font-size: 25.5px;
      }

      .st23 {
        fill: #b69b71;
        font-size: 57.5px;
      }

      .st24 {
        fill: #836b48;
      }

      .st25 {
        fill: #b7a284;
      }

      .st26 {
        fill: #8e7856;
      }
    </style>
  </defs>
  <rect class="st27" x="490.2" y="-585.5" width="620" height="425"/>
  <text class="st23" transform="translate(552.6 -290.9) scale(.8 1)"><tspan x="0" y="0">The New York Times</tspan></text>
  <text class="st5" transform="translate(527.6 -355) scale(.8 1)"><tspan x="0" y="0">The Washington Post</tspan></text>
  <text class="st13" transform="translate(750.5 -448.1) scale(.8 1)"><tspan x="0" y="0">The Associated Press</tspan></text>
  <text class="st6" transform="translate(631.7 -411.4) scale(.8 1)"><tspan x="0" y="0">The Wall Street Journal</tspan></text>
  <text class="st22" transform="translate(867 -501.3) scale(.8 1)"><tspan x="0" y="0">Newsday</tspan></text>
  <text class="st3" transform="translate(581 -267) scale(.8 1)"><tspan x="0" y="0">The Christian Science Monitor</tspan></text>
  <text class="st11" transform="translate(876.6 -389.4) scale(.8 1)"><tspan x="0" y="0">Reuters</tspan></text>
  <text class="st9" transform="translate(548.4 -214.1) scale(.8 1)"><tspan x="0" y="0">Los Angeles Times</tspan></text>
  <text class="st20" transform="translate(710.1 -394.8) scale(.8 1)"><tspan x="0" y="0">The Baltimore Sun</tspan></text>
  <text class="st1" transform="translate(947.5 -274.3) scale(.8 1)"><tspan x="0" y="0">Chicago Tribune</tspan></text>
  <text class="st19" transform="translate(571 -541.9) scale(.8 1)"><tspan x="0" y="0">The Village Voice</tspan></text>
  <text class="st24" transform="translate(836.2 -525.3) scale(.8 1)"><tspan x="0" y="0">Unknown</tspan></text>
  <text class="st2" transform="translate(869.4 -343.8) scale(.8 1)"><tspan x="0" y="0">The Milwaukee Journal</tspan></text>
  <text class="st10" transform="translate(845 -484.3) scale(.8 1)"><tspan x="0" y="0">Scripps-Howard Newspapers</tspan></text>
  <text class="st26" transform="translate(889.9 -238.4) scale(.8 1)"><tspan x="0" y="0">International News Service</tspan></text>
  <text class="st4" transform="translate(1087.8 -290.9) rotate(-90) scale(1.3 1)"><tspan x="0" y="0">United Press</tspan></text>
  <text class="st21" transform="translate(549.6 -396.3) scale(.8 1)"><tspan x="0" y="0">New York Daily News</tspan></text>
  <text class="st25" transform="translate(561.7 -246.9) scale(.8 1)"><tspan x="0" y="0">New York Herald Tribune Syndicate</tspan></text>
  <text class="st8" transform="translate(524.6 -434.2) scale(.8 1)"><tspan x="0" y="0">The Miami News</tspan></text>
  <text class="st7" transform="translate(534.2 -468.9) scale(.8 1)"><tspan x="0" y="0">Philadelphia Bulletin</tspan></text>
  <text class="st15" transform="translate(576.1 -526.4) scale(.8 1)"><tspan x="0" y="0">Dispatch News Service</tspan></text>
  <text class="st14" transform="translate(600 -491.3) scale(.8 1)"><tspan x="0" y="0">The Philadelphia Inquirer</tspan></text>
  <text class="st12" transform="translate(517 -340.7) scale(.8 1)"><tspan x="0" y="0">Louisville Courtier-Journal</tspan></text>
  <text class="st16" transform="translate(949.4 -517.9) scale(.8 1)"><tspan x="0" y="0">BuzzFeed News</tspan></text>
  <text class="st0" transform="translate(584.9 -184.8) scale(.8 1)"><tspan x="0" y="0">San Jose Mercury News</tspan></text>
  <text class="st18" transform="translate(875.1 -538.8) scale(.8 1)"><tspan x="0" y="0">The Dallas Morning News</tspan></text>
  <text class="st17" transform="translate(546.6 -447.7) scale(.8 1)"><tspan x="0" y="0">The Miami Herald</tspan></text>
</svg>